<svg id="Capa_1" enable-background="new 0 0 497 497" height="512" viewBox="0 0 497 497" width="512" xmlns="http://www.w3.org/2000/svg"><g><path d="m390.507 38.5h-30l15 30v150c0 8.284 6.716 15 15 15s15-6.716 15-15v-165c0-8.284-6.716-15-15-15z" fill="#95b0ed"/><path d="m360.507 38.5c-8.284 0-15 6.716-15 15s6.716 15 15 15h15v-15c0-8.284-6.716-15-15-15z" fill="#acd2f6"/><path d="m165.5 316c0-12.41-10.1-22.5-22.5-22.5-12.41 0-22.5 10.09-22.5 22.5v90c0 12.41 10.09 22.5 22.5 22.5 12.4 0 22.5-10.09 22.5-22.5 0 36.754 0 52.5-22.5 52.5-28.95 0-52.5-23.55-52.5-52.5v-90c0-28.95 23.55-52.5 52.5-52.5 22.5 0 22.5 15 22.5 52.5z" fill="#acd2f6"/><path d="m195.5 316v90c0 28.95-23.55 52.5-52.5 52.5 12.4 0 22.5-23.55 22.5-52.5v-90c0-28.95-10.1-52.5-22.5-52.5 28.95 0 52.5 23.55 52.5 52.5z" fill="#95b0ed"/><path d="m75.006 91c0-12.41-10.1-22.5-22.5-22.5-12.41 0-22.5 10.09-22.5 22.5v90c0 12.41 10.09 22.5 22.5 22.5 12.4 0 22.5-10.09 22.5-22.5 0 36.754 0 52.5-22.5 52.5-28.95 0-52.5-23.55-52.5-52.5v-90c0-28.95 23.55-52.5 52.5-52.5 22.5 0 22.5 15 22.5 52.5z" fill="#acd2f6"/><path d="m105.006 91v90c0 28.95-23.55 52.5-52.5 52.5 12.4 0 22.5-23.55 22.5-52.5v-90c0-28.95-10.1-52.5-22.5-52.5 28.95 0 52.5 23.55 52.5 52.5z" fill="#95b0ed"/><path d="m482 263.5h-30l15 30v150c0 8.284 6.716 15 15 15s15-6.716 15-15v-165c0-8.284-6.716-15-15-15z" fill="#95b0ed"/><path d="m452 263.5c-8.284 0-15 6.716-15 15s6.716 15 15 15h15v-15c0-8.284-6.716-15-15-15z" fill="#acd2f6"/><path d="m263.5 263.5h-30l15 30v150c0 8.284 6.716 15 15 15s15-6.716 15-15v-165c0-8.284-6.716-15-15-15z" fill="#95b0ed"/><path d="m233.5 263.5c-8.284 0-15 6.716-15 15s6.716 15 15 15h15v-15c0-8.284-6.716-15-15-15z" fill="#acd2f6"/><path d="m45 263.5h-30l15 30v150c0 8.284 6.716 15 15 15s15-6.716 15-15v-165c0-8.284-6.716-15-15-15z" fill="#95b0ed"/><path d="m15 263.5c-8.284 0-15 6.716-15 15s6.716 15 15 15h15v-15c0-8.284-6.716-15-15-15z" fill="#acd2f6"/><path d="m172.506 38.5h-30l15 30v150c0 8.284 6.716 15 15 15s15-6.716 15-15v-165c0-8.284-6.715-15-15-15z" fill="#95b0ed"/><path d="m142.506 38.5c-8.284 0-15 6.716-15 15s6.716 15 15 15h15v-15c0-8.284-6.715-15-15-15z" fill="#acd2f6"/><path d="m293.006 91c0-12.41-10.1-22.5-22.5-22.5-12.41 0-22.5 10.09-22.5 22.5v90c0 12.41 10.09 22.5 22.5 22.5 12.4 0 22.5-10.09 22.5-22.5 0 36.754 0 52.5-22.5 52.5-28.95 0-52.5-23.55-52.5-52.5v-90c0-28.95 23.55-52.5 52.5-52.5 22.5 0 22.5 15 22.5 52.5z" fill="#acd2f6"/><path d="m323.006 91v90c0 28.95-23.55 52.5-52.5 52.5 12.4 0 22.5-23.55 22.5-52.5v-90c0-28.95-10.1-52.5-22.5-52.5 28.95 0 52.5 23.55 52.5 52.5z" fill="#95b0ed"/><path d="m482 38.5h-30l15 30v150c0 8.284 6.716 15 15 15s15-6.716 15-15v-165c0-8.284-6.716-15-15-15z" fill="#95b0ed"/><path d="m452 38.5c-8.284 0-15 6.716-15 15s6.716 15 15 15h15v-15c0-8.284-6.716-15-15-15z" fill="#acd2f6"/><path d="m384 316c0-12.41-10.1-22.5-22.5-22.5-12.41 0-22.5 10.09-22.5 22.5v90c0 12.41 10.09 22.5 22.5 22.5 12.4 0 22.5-10.09 22.5-22.5 0 36.754 0 52.5-22.5 52.5-28.95 0-52.5-23.55-52.5-52.5v-90c0-28.95 23.55-52.5 52.5-52.5 22.5 0 22.5 15 22.5 52.5z" fill="#acd2f6"/><path d="m414 316v90c0 28.95-23.55 52.5-52.5 52.5 12.4 0 22.5-23.55 22.5-52.5v-90c0-28.95-10.1-52.5-22.5-52.5 28.95 0 52.5 23.55 52.5 52.5z" fill="#95b0ed"/></g></svg>